# xmcd CD database file
#
# Track frame offsets:
#	150
#	22437
#	47037
#
# Disc length: 922 seconds
#
# Revision: 0
# Processed by: cddbd v1.5.1PL2 Copyright (c) Steve Scherf et al.
# Submitted via: CDex 1.51
#
DISCID=25039803
DTITLE=中西保志 - ＵＮＦＩＮＩＳＨ〜あの日の君がいる〜
DYEAR=1994
DGENRE=JPop
TTITLE0=ＵＮＦＩＮＩＳＨ〜あの日の君がいる〜
TTITLE1=愛が見えたとき
TTITLE2=ＵＮＦＩＮＩＳＨ〜あの日の君がいる〜（オリジナル・カラオケ）
EXTD=YEAR: 1994/5/24
EXTT0=
EXTT1=
EXTT2=
PLAYORDER=
